<mxfile host="65bd71144e">
    <diagram id="8Pd2lFBg1xtKpYarlM-1" name="Page-1">
        <mxGraphModel dx="1072" dy="563" grid="1" gridSize="10" guides="1" tooltips="1" connect="1" arrows="1" fold="1" page="1" pageScale="1" pageWidth="850" pageHeight="1100" math="0" shadow="0">
            <root>
                <mxCell id="0"/>
                <mxCell id="1" parent="0"/>
                <mxCell id="2" value="10. Una ONG desea elaborar una base de datos para llevar el seguimiento de todos sus proyectos. Tiene diversas sedes en varios países que se encargan de gestionar y coordinar los proyectos de ese país, cada uno de los cuales puede afectar a una o varias poblaciones. Sobre las sedes se desea mantener un identificador, la ciudad y país en el que se encuentra, junto con su dirección, un teléfono de contacto y el nombre del director. Cada sede gestiona un conjunto de proyectos, con un código, un título, fechas de inicio y finalización, el presupuesto asignado y el nombre del responsable. De cada proyecto es necesario conocer qué actuaciones se realizan en cada población, almacenando el nombre, país y no de habitantes y un identificador para diferenciarlas. Además, se desea la inversión del proyecto que corresponde a la población y una pequeña descripción de la actuación." style="text;whiteSpace=wrap;" vertex="1" parent="1">
                    <mxGeometry x="50" y="50" width="630" height="160" as="geometry"/>
                </mxCell>
                <mxCell id="3" style="edgeStyle=none;html=1;exitX=0.5;exitY=1;exitDx=0;exitDy=0;entryX=0.5;entryY=0;entryDx=0;entryDy=0;endArrow=none;endFill=0;" edge="1" parent="1" source="7" target="16">
                    <mxGeometry relative="1" as="geometry"/>
                </mxCell>
                <mxCell id="4" style="edgeStyle=none;html=1;exitX=1;exitY=0;exitDx=0;exitDy=0;entryX=0;entryY=0.5;entryDx=0;entryDy=0;endArrow=none;endFill=0;" edge="1" parent="1" source="7" target="10">
                    <mxGeometry relative="1" as="geometry"/>
                </mxCell>
                <mxCell id="5" style="edgeStyle=none;html=1;exitX=1;exitY=1;exitDx=0;exitDy=0;entryX=0;entryY=0.5;entryDx=0;entryDy=0;endArrow=none;endFill=0;" edge="1" parent="1" source="7" target="9">
                    <mxGeometry relative="1" as="geometry"/>
                </mxCell>
                <mxCell id="6" style="edgeStyle=none;html=1;exitX=1;exitY=0.5;exitDx=0;exitDy=0;entryX=0;entryY=0.5;entryDx=0;entryDy=0;endArrow=none;endFill=0;" edge="1" parent="1" source="7" target="8">
                    <mxGeometry relative="1" as="geometry"/>
                </mxCell>
                <mxCell id="7" value="SEDE" style="whiteSpace=wrap;html=1;align=center;" vertex="1" parent="1">
                    <mxGeometry x="366" y="416" width="100" height="40" as="geometry"/>
                </mxCell>
                <mxCell id="8" value="ciudad" style="ellipse;whiteSpace=wrap;html=1;align=center;" vertex="1" parent="1">
                    <mxGeometry x="496" y="416" width="100" height="40" as="geometry"/>
                </mxCell>
                <mxCell id="9" value="país" style="ellipse;whiteSpace=wrap;html=1;align=center;" vertex="1" parent="1">
                    <mxGeometry x="498" y="463" width="100" height="40" as="geometry"/>
                </mxCell>
                <mxCell id="10" value="identificación" style="ellipse;whiteSpace=wrap;html=1;align=center;" vertex="1" parent="1">
                    <mxGeometry x="496" y="366" width="100" height="40" as="geometry"/>
                </mxCell>
                <mxCell id="11" style="edgeStyle=none;html=1;exitX=0.5;exitY=1;exitDx=0;exitDy=0;entryX=0.5;entryY=0;entryDx=0;entryDy=0;endArrow=none;endFill=0;" edge="1" parent="1" source="13" target="51">
                    <mxGeometry relative="1" as="geometry"/>
                </mxCell>
                <mxCell id="12" style="edgeStyle=none;html=1;exitX=0.5;exitY=1;exitDx=0;exitDy=0;entryX=0.5;entryY=0;entryDx=0;entryDy=0;endArrow=none;endFill=0;" edge="1" parent="1" source="13" target="7">
                    <mxGeometry relative="1" as="geometry"/>
                </mxCell>
                <mxCell id="13" value="dirige" style="shape=rhombus;perimeter=rhombusPerimeter;whiteSpace=wrap;html=1;align=center;" vertex="1" parent="1">
                    <mxGeometry x="356" y="326" width="120" height="60" as="geometry"/>
                </mxCell>
                <mxCell id="14" value="teléfono" style="ellipse;whiteSpace=wrap;html=1;align=center;" vertex="1" parent="1">
                    <mxGeometry x="251" y="260" width="100" height="40" as="geometry"/>
                </mxCell>
                <mxCell id="15" style="edgeStyle=none;html=1;exitX=0.5;exitY=1;exitDx=0;exitDy=0;entryX=0.5;entryY=0;entryDx=0;entryDy=0;endArrow=none;endFill=0;" edge="1" parent="1" source="16" target="42">
                    <mxGeometry relative="1" as="geometry"/>
                </mxCell>
                <mxCell id="16" value="gestiona&lt;div&gt;1:n&lt;/div&gt;" style="shape=rhombus;perimeter=rhombusPerimeter;whiteSpace=wrap;html=1;align=center;" vertex="1" parent="1">
                    <mxGeometry x="356" y="479" width="120" height="60" as="geometry"/>
                </mxCell>
                <mxCell id="17" value="título" style="ellipse;whiteSpace=wrap;html=1;align=center;" vertex="1" parent="1">
                    <mxGeometry x="218" y="534" width="100" height="40" as="geometry"/>
                </mxCell>
                <mxCell id="18" value="persona a cargo" style="ellipse;whiteSpace=wrap;html=1;align=center;" vertex="1" parent="1">
                    <mxGeometry x="218" y="492" width="100" height="40" as="geometry"/>
                </mxCell>
                <mxCell id="19" value="fecha inicio" style="ellipse;whiteSpace=wrap;html=1;align=center;" vertex="1" parent="1">
                    <mxGeometry x="218" y="621" width="100" height="40" as="geometry"/>
                </mxCell>
                <mxCell id="20" value="código" style="ellipse;whiteSpace=wrap;html=1;align=center;" vertex="1" parent="1">
                    <mxGeometry x="218" y="578" width="100" height="40" as="geometry"/>
                </mxCell>
                <mxCell id="21" style="edgeStyle=none;html=1;exitX=0;exitY=0.5;exitDx=0;exitDy=0;entryX=1;entryY=0.5;entryDx=0;entryDy=0;endArrow=none;endFill=0;" edge="1" parent="1" source="24" target="34">
                    <mxGeometry relative="1" as="geometry"/>
                </mxCell>
                <mxCell id="22" style="edgeStyle=none;html=1;exitX=0;exitY=0.5;exitDx=0;exitDy=0;entryX=1;entryY=0.5;entryDx=0;entryDy=0;endArrow=none;endFill=0;" edge="1" parent="1" source="24" target="35">
                    <mxGeometry relative="1" as="geometry"/>
                </mxCell>
                <mxCell id="23" style="edgeStyle=none;html=1;exitX=0;exitY=0.5;exitDx=0;exitDy=0;entryX=1;entryY=0.5;entryDx=0;entryDy=0;endArrow=none;endFill=0;" edge="1" parent="1" source="24" target="33">
                    <mxGeometry relative="1" as="geometry"/>
                </mxCell>
                <mxCell id="24" value="fecha fin" style="ellipse;whiteSpace=wrap;html=1;align=center;" vertex="1" parent="1">
                    <mxGeometry x="218" y="666" width="100" height="40" as="geometry"/>
                </mxCell>
                <mxCell id="25" value="nombre" style="ellipse;whiteSpace=wrap;html=1;align=center;" vertex="1" parent="1">
                    <mxGeometry x="496" y="718" width="100" height="40" as="geometry"/>
                </mxCell>
                <mxCell id="26" value="país&amp;nbsp;" style="ellipse;whiteSpace=wrap;html=1;align=center;" vertex="1" parent="1">
                    <mxGeometry x="496" y="818" width="100" height="40" as="geometry"/>
                </mxCell>
                <mxCell id="27" value="# habitantes" style="ellipse;whiteSpace=wrap;html=1;align=center;" vertex="1" parent="1">
                    <mxGeometry x="498" y="868" width="100" height="40" as="geometry"/>
                </mxCell>
                <mxCell id="28" value="código" style="ellipse;whiteSpace=wrap;html=1;align=center;" vertex="1" parent="1">
                    <mxGeometry x="496" y="768" width="100" height="40" as="geometry"/>
                </mxCell>
                <mxCell id="29" style="edgeStyle=none;html=1;exitX=1;exitY=0.5;exitDx=0;exitDy=0;entryX=0;entryY=0.5;entryDx=0;entryDy=0;endArrow=none;endFill=0;" edge="1" parent="1" source="31" target="32">
                    <mxGeometry relative="1" as="geometry"/>
                </mxCell>
                <mxCell id="30" style="edgeStyle=none;html=1;exitX=0.5;exitY=1;exitDx=0;exitDy=0;entryX=0.5;entryY=0;entryDx=0;entryDy=0;endArrow=none;endFill=0;" edge="1" parent="1" source="31" target="47">
                    <mxGeometry relative="1" as="geometry"/>
                </mxCell>
                <mxCell id="31" value="inversion&lt;div&gt;n:N&lt;/div&gt;" style="shape=rhombus;perimeter=rhombusPerimeter;whiteSpace=wrap;html=1;align=center;" vertex="1" parent="1">
                    <mxGeometry x="356" y="651" width="120" height="60" as="geometry"/>
                </mxCell>
                <mxCell id="32" value="descripción de la actuación" style="ellipse;whiteSpace=wrap;html=1;align=center;" vertex="1" parent="1">
                    <mxGeometry x="496" y="661" width="100" height="40" as="geometry"/>
                </mxCell>
                <mxCell id="33" value="mes" style="ellipse;whiteSpace=wrap;html=1;align=center;" vertex="1" parent="1">
                    <mxGeometry x="110" y="659.5" width="80" height="50" as="geometry"/>
                </mxCell>
                <mxCell id="34" value="día" style="ellipse;whiteSpace=wrap;html=1;align=center;" vertex="1" parent="1">
                    <mxGeometry x="110" y="608.5" width="80" height="50" as="geometry"/>
                </mxCell>
                <mxCell id="35" value="año" style="ellipse;whiteSpace=wrap;html=1;align=center;" vertex="1" parent="1">
                    <mxGeometry x="110" y="713.5" width="80" height="50" as="geometry"/>
                </mxCell>
                <mxCell id="36" style="edgeStyle=none;html=1;exitX=0.5;exitY=1;exitDx=0;exitDy=0;entryX=0.5;entryY=0;entryDx=0;entryDy=0;endArrow=none;endFill=0;" edge="1" parent="1" source="42" target="31">
                    <mxGeometry relative="1" as="geometry"/>
                </mxCell>
                <mxCell id="37" style="edgeStyle=none;html=1;exitX=0;exitY=0.5;exitDx=0;exitDy=0;entryX=1;entryY=0.5;entryDx=0;entryDy=0;endArrow=none;endFill=0;" edge="1" parent="1" source="42" target="17">
                    <mxGeometry relative="1" as="geometry"/>
                </mxCell>
                <mxCell id="38" style="edgeStyle=none;html=1;exitX=0;exitY=0;exitDx=0;exitDy=0;entryX=1;entryY=0.5;entryDx=0;entryDy=0;endArrow=none;endFill=0;" edge="1" parent="1" source="42" target="18">
                    <mxGeometry relative="1" as="geometry"/>
                </mxCell>
                <mxCell id="39" style="edgeStyle=none;html=1;exitX=0;exitY=1;exitDx=0;exitDy=0;entryX=1;entryY=0.5;entryDx=0;entryDy=0;endArrow=none;endFill=0;" edge="1" parent="1" source="42" target="24">
                    <mxGeometry relative="1" as="geometry"/>
                </mxCell>
                <mxCell id="40" style="edgeStyle=none;html=1;exitX=0;exitY=0.5;exitDx=0;exitDy=0;entryX=1;entryY=0.5;entryDx=0;entryDy=0;endArrow=none;endFill=0;" edge="1" parent="1" source="42" target="19">
                    <mxGeometry relative="1" as="geometry"/>
                </mxCell>
                <mxCell id="41" style="edgeStyle=none;html=1;exitX=0;exitY=0.5;exitDx=0;exitDy=0;entryX=1;entryY=0.5;entryDx=0;entryDy=0;endArrow=none;endFill=0;" edge="1" parent="1" source="42" target="20">
                    <mxGeometry relative="1" as="geometry"/>
                </mxCell>
                <mxCell id="42" value="PROYECTO" style="shape=ext;margin=3;double=1;whiteSpace=wrap;html=1;align=center;" vertex="1" parent="1">
                    <mxGeometry x="366" y="575" width="100" height="40" as="geometry"/>
                </mxCell>
                <mxCell id="43" style="edgeStyle=none;html=1;exitX=1;exitY=0;exitDx=0;exitDy=0;entryX=0;entryY=0.5;entryDx=0;entryDy=0;endArrow=none;endFill=0;" edge="1" parent="1" source="47" target="25">
                    <mxGeometry relative="1" as="geometry"/>
                </mxCell>
                <mxCell id="44" style="edgeStyle=none;html=1;exitX=1;exitY=1;exitDx=0;exitDy=0;entryX=0;entryY=0.5;entryDx=0;entryDy=0;endArrow=none;endFill=0;" edge="1" parent="1" source="47" target="27">
                    <mxGeometry relative="1" as="geometry"/>
                </mxCell>
                <mxCell id="45" style="edgeStyle=none;html=1;exitX=1;exitY=0.5;exitDx=0;exitDy=0;entryX=0;entryY=0.5;entryDx=0;entryDy=0;endArrow=none;endFill=0;" edge="1" parent="1" source="47" target="28">
                    <mxGeometry relative="1" as="geometry"/>
                </mxCell>
                <mxCell id="46" style="edgeStyle=none;html=1;exitX=1;exitY=0.5;exitDx=0;exitDy=0;entryX=0;entryY=0.5;entryDx=0;entryDy=0;endArrow=none;endFill=0;" edge="1" parent="1" source="47" target="26">
                    <mxGeometry relative="1" as="geometry"/>
                </mxCell>
                <mxCell id="47" value="POBLACIÓN" style="shape=ext;margin=3;double=1;whiteSpace=wrap;html=1;align=center;" vertex="1" parent="1">
                    <mxGeometry x="366" y="789" width="100" height="40" as="geometry"/>
                </mxCell>
                <mxCell id="48" style="edgeStyle=none;html=1;exitX=0;exitY=0;exitDx=0;exitDy=0;entryX=1;entryY=0.5;entryDx=0;entryDy=0;endArrow=none;endFill=0;" edge="1" parent="1" source="51" target="53">
                    <mxGeometry relative="1" as="geometry"/>
                </mxCell>
                <mxCell id="49" style="edgeStyle=none;html=1;exitX=0;exitY=1;exitDx=0;exitDy=0;entryX=1;entryY=0.5;entryDx=0;entryDy=0;endArrow=none;endFill=0;" edge="1" parent="1" source="51" target="54">
                    <mxGeometry relative="1" as="geometry"/>
                </mxCell>
                <mxCell id="50" style="edgeStyle=none;html=1;exitX=0;exitY=0.5;exitDx=0;exitDy=0;entryX=1;entryY=0.5;entryDx=0;entryDy=0;endArrow=none;endFill=0;" edge="1" parent="1" source="51" target="52">
                    <mxGeometry relative="1" as="geometry"/>
                </mxCell>
                <mxCell id="51" value="DIRECTOR" style="shape=ext;margin=3;double=1;whiteSpace=wrap;html=1;align=center;" vertex="1" parent="1">
                    <mxGeometry x="366" y="262" width="100" height="40" as="geometry"/>
                </mxCell>
                <mxCell id="52" value="teléfono" style="ellipse;whiteSpace=wrap;html=1;align=center;" vertex="1" parent="1">
                    <mxGeometry x="251" y="260" width="100" height="40" as="geometry"/>
                </mxCell>
                <mxCell id="53" value="nombre" style="ellipse;whiteSpace=wrap;html=1;align=center;" vertex="1" parent="1">
                    <mxGeometry x="251" y="210" width="100" height="40" as="geometry"/>
                </mxCell>
                <mxCell id="54" value="dirección" style="ellipse;whiteSpace=wrap;html=1;align=center;" vertex="1" parent="1">
                    <mxGeometry x="248" y="309" width="100" height="40" as="geometry"/>
                </mxCell>
            </root>
        </mxGraphModel>
    </diagram>
</mxfile>